<?xml version="1.0" encoding="UTF-8"?>
<svg xmlns="http://www.w3.org/2000/svg" xmlns:xlink="http://www.w3.org/1999/xlink" viewBox="0 0 509.31 207.73">
  <defs>
    <style>
      .cls-1 {
        fill: url(#linear-gradient-38);
      }

      .cls-1, .cls-2, .cls-3, .cls-4, .cls-5, .cls-6, .cls-7, .cls-8, .cls-9, .cls-10, .cls-11, .cls-12, .cls-13, .cls-14, .cls-15, .cls-16, .cls-17, .cls-18, .cls-19, .cls-20, .cls-21, .cls-22, .cls-23, .cls-24, .cls-25, .cls-26, .cls-27, .cls-28, .cls-29, .cls-30, .cls-31, .cls-32, .cls-33, .cls-34, .cls-35, .cls-36, .cls-37, .cls-38, .cls-39, .cls-40, .cls-41, .cls-42, .cls-43, .cls-44, .cls-45, .cls-46, .cls-47, .cls-48, .cls-49, .cls-50, .cls-51, .cls-52, .cls-53, .cls-54, .cls-55, .cls-56, .cls-57, .cls-58, .cls-59, .cls-60, .cls-61, .cls-62, .cls-63, .cls-64 {
        stroke-width: 0px;
      }

      .cls-2 {
        fill: url(#linear-gradient-12);
      }

      .cls-3 {
        fill: url(#linear-gradient-17);
      }

      .cls-4 {
        fill: url(#linear-gradient-19);
      }

      .cls-5 {
        fill: url(#linear-gradient-33);
      }

      .cls-6 {
        fill: url(#linear-gradient);
      }

      .cls-7 {
        fill: url(#linear-gradient-62);
      }

      .cls-8 {
        fill: url(#linear-gradient-57);
      }

      .cls-9 {
        fill: url(#linear-gradient-21);
      }

      .cls-10 {
        fill: url(#linear-gradient-6);
      }

      .cls-11 {
        fill: #242a64;
      }

      .cls-12 {
        fill: url(#linear-gradient-11);
      }

      .cls-12, .cls-15, .cls-17, .cls-62 {
        mix-blend-mode: multiply;
      }

      .cls-65 {
        isolation: isolate;
      }

      .cls-13 {
        fill: url(#linear-gradient-42);
      }

      .cls-14 {
        fill: url(#linear-gradient-15);
      }

      .cls-15 {
        fill: url(#linear-gradient-5);
      }

      .cls-16 {
        fill: url(#linear-gradient-31);
      }

      .cls-17 {
        fill: url(#linear-gradient-9);
      }

      .cls-18 {
        fill: url(#linear-gradient-58);
      }

      .cls-19 {
        fill: url(#linear-gradient-34);
      }

      .cls-20 {
        fill: url(#linear-gradient-41);
      }

      .cls-21 {
        fill: url(#linear-gradient-40);
      }

      .cls-22 {
        fill: url(#linear-gradient-13);
      }

      .cls-23 {
        fill: url(#linear-gradient-23);
      }

      .cls-24 {
        fill: url(#linear-gradient-25);
      }

      .cls-25 {
        fill: url(#linear-gradient-43);
      }

      .cls-26 {
        fill: url(#linear-gradient-16);
      }

      .cls-27 {
        fill: url(#linear-gradient-22);
      }

      .cls-28 {
        fill: url(#linear-gradient-54);
      }

      .cls-29 {
        fill: url(#linear-gradient-55);
      }

      .cls-30 {
        fill: url(#linear-gradient-35);
      }

      .cls-31 {
        fill: url(#linear-gradient-50);
      }

      .cls-32 {
        fill: url(#linear-gradient-32);
      }

      .cls-33 {
        fill: url(#linear-gradient-60);
      }

      .cls-34 {
        fill: url(#linear-gradient-59);
      }

      .cls-35 {
        fill: url(#linear-gradient-20);
      }

      .cls-36 {
        fill: url(#linear-gradient-14);
      }

      .cls-37 {
        fill: url(#linear-gradient-2);
      }

      .cls-38 {
        fill: url(#linear-gradient-52);
      }

      .cls-39 {
        fill: url(#linear-gradient-45);
      }

      .cls-40 {
        fill: url(#linear-gradient-39);
      }

      .cls-41 {
        fill: url(#linear-gradient-3);
      }

      .cls-42 {
        fill: url(#linear-gradient-27);
      }

      .cls-43 {
        fill: url(#linear-gradient-53);
      }

      .cls-44 {
        fill: #f04d23;
      }

      .cls-45 {
        fill: url(#linear-gradient-36);
      }

      .cls-46 {
        fill: url(#linear-gradient-48);
      }

      .cls-47 {
        fill: url(#linear-gradient-49);
      }

      .cls-48 {
        fill: url(#linear-gradient-8);
      }

      .cls-49 {
        fill: url(#linear-gradient-47);
      }

      .cls-50 {
        fill: url(#linear-gradient-24);
      }

      .cls-51 {
        fill: url(#linear-gradient-26);
      }

      .cls-52 {
        fill: url(#linear-gradient-61);
      }

      .cls-53 {
        fill: url(#linear-gradient-18);
      }

      .cls-54 {
        fill: url(#linear-gradient-51);
      }

      .cls-55 {
        fill: url(#linear-gradient-30);
      }

      .cls-56 {
        fill: url(#linear-gradient-44);
      }

      .cls-57 {
        fill: url(#linear-gradient-29);
      }

      .cls-58 {
        fill: url(#linear-gradient-46);
      }

      .cls-59 {
        fill: url(#linear-gradient-28);
      }

      .cls-60 {
        fill: url(#linear-gradient-56);
      }

      .cls-61 {
        fill: url(#linear-gradient-10);
      }

      .cls-62 {
        fill: url(#linear-gradient-7);
      }

      .cls-63 {
        fill: url(#linear-gradient-4);
      }

      .cls-64 {
        fill: url(#linear-gradient-37);
      }
    </style>
    <linearGradient id="linear-gradient" x1="203.27" y1="-12.11" x2="329.79" y2="74.88" gradientUnits="userSpaceOnUse">
      <stop offset=".02" stop-color="#ef4523"></stop>
      <stop offset=".47" stop-color="#f78f22"></stop>
      <stop offset=".72" stop-color="#0b466e"></stop>
      <stop offset=".99" stop-color="#0b2243"></stop>
    </linearGradient>
    <linearGradient id="linear-gradient-2" x1="203.27" y1="-12.11" x2="329.79" y2="74.88" xlink:href="#linear-gradient"></linearGradient>
    <linearGradient id="linear-gradient-3" x1="203.27" y1="-12.11" x2="329.79" y2="74.88" xlink:href="#linear-gradient"></linearGradient>
    <linearGradient id="linear-gradient-4" x1="181.99" y1="18.83" x2="308.51" y2="105.82" gradientUnits="userSpaceOnUse">
      <stop offset=".14" stop-color="#ef4523"></stop>
      <stop offset=".5" stop-color="#f16022"></stop>
      <stop offset=".93" stop-color="#0b2243"></stop>
    </linearGradient>
    <linearGradient id="linear-gradient-5" x1="189" y1="8.64" x2="315.53" y2="95.62" xlink:href="#linear-gradient-4"></linearGradient>
    <linearGradient id="linear-gradient-6" x1="151.93" y1="62.56" x2="278.45" y2="149.54" xlink:href="#linear-gradient-4"></linearGradient>
    <linearGradient id="linear-gradient-7" x1="155.97" y1="56.69" x2="282.49" y2="143.67" xlink:href="#linear-gradient-4"></linearGradient>
    <linearGradient id="linear-gradient-8" x1="173.25" y1="31.55" x2="299.77" y2="118.53" xlink:href="#linear-gradient-4"></linearGradient>
    <linearGradient id="linear-gradient-9" x1="166.24" y1="41.75" x2="292.76" y2="128.73" xlink:href="#linear-gradient-4"></linearGradient>
    <linearGradient id="linear-gradient-10" x1="203.31" y1="-12.18" x2="329.83" y2="74.81" xlink:href="#linear-gradient-4"></linearGradient>
    <linearGradient id="linear-gradient-11" x1="199.28" y1="-6.31" x2="325.8" y2="80.68" xlink:href="#linear-gradient-4"></linearGradient>
    <linearGradient id="linear-gradient-12" x1="186.63" y1="12.1" x2="313.15" y2="99.08" gradientUnits="userSpaceOnUse">
      <stop offset=".29" stop-color="#ef4523"></stop>
      <stop offset=".99" stop-color="#0b2243"></stop>
    </linearGradient>
    <linearGradient id="linear-gradient-13" x1="169.58" y1="36.89" x2="296.1" y2="123.87" gradientUnits="userSpaceOnUse">
      <stop offset=".02" stop-color="#2dc1d5"></stop>
      <stop offset=".47" stop-color="#416db5"></stop>
      <stop offset=".72" stop-color="#0b466e"></stop>
      <stop offset=".99" stop-color="#0b2243"></stop>
    </linearGradient>
    <linearGradient id="linear-gradient-14" x1="179.77" y1="22.07" x2="306.29" y2="109.05" xlink:href="#linear-gradient-12"></linearGradient>
    <linearGradient id="linear-gradient-15" x1="182.21" y1="18.52" x2="308.73" y2="105.5" gradientUnits="userSpaceOnUse">
      <stop offset=".02" stop-color="#ef4523"></stop>
      <stop offset=".99" stop-color="#0b2243"></stop>
    </linearGradient>
    <linearGradient id="linear-gradient-16" x1="180.83" y1="20.52" x2="307.36" y2="107.5" xlink:href="#linear-gradient-12"></linearGradient>
    <linearGradient id="linear-gradient-17" x1="182.52" y1="18.07" x2="309.04" y2="105.06" xlink:href="#linear-gradient-12"></linearGradient>
    <linearGradient id="linear-gradient-18" x1="189.39" y1="8.08" x2="315.91" y2="95.06" xlink:href="#linear-gradient-12"></linearGradient>
    <linearGradient id="linear-gradient-19" x1="196.31" y1="-1.99" x2="322.83" y2="84.99" xlink:href="#linear-gradient-12"></linearGradient>
    <linearGradient id="linear-gradient-20" x1="194.12" y1="1.19" x2="320.65" y2="88.17" xlink:href="#linear-gradient-12"></linearGradient>
    <linearGradient id="linear-gradient-21" x1="199.88" y1="-7.18" x2="326.4" y2="79.8" xlink:href="#linear-gradient-12"></linearGradient>
    <linearGradient id="linear-gradient-22" x1="186.11" y1="12.84" x2="312.63" y2="99.83" xlink:href="#linear-gradient-12"></linearGradient>
    <linearGradient id="linear-gradient-23" x1="187.35" y1="11.04" x2="313.88" y2="98.02" xlink:href="#linear-gradient-15"></linearGradient>
    <linearGradient id="linear-gradient-24" x1="183.56" y1="16.55" x2="310.08" y2="103.53" xlink:href="#linear-gradient-12"></linearGradient>
    <linearGradient id="linear-gradient-25" x1="189.04" y1="8.58" x2="315.56" y2="95.56" xlink:href="#linear-gradient-12"></linearGradient>
    <linearGradient id="linear-gradient-26" x1="174.34" y1="29.96" x2="300.86" y2="116.95" xlink:href="#linear-gradient-13"></linearGradient>
    <linearGradient id="linear-gradient-27" x1="178.56" y1="23.82" x2="305.09" y2="110.8" xlink:href="#linear-gradient-12"></linearGradient>
    <linearGradient id="linear-gradient-28" x1="170.27" y1="35.89" x2="296.79" y2="122.87" xlink:href="#linear-gradient-15"></linearGradient>
    <linearGradient id="linear-gradient-29" x1="160.74" y1="49.75" x2="287.26" y2="136.73" xlink:href="#linear-gradient-15"></linearGradient>
    <linearGradient id="linear-gradient-30" x1="173.72" y1="30.87" x2="300.24" y2="117.85" xlink:href="#linear-gradient-12"></linearGradient>
    <linearGradient id="linear-gradient-31" x1="177.25" y1="25.74" x2="303.77" y2="112.72" xlink:href="#linear-gradient-13"></linearGradient>
    <linearGradient id="linear-gradient-32" x1="167.75" y1="39.56" x2="294.27" y2="126.54" xlink:href="#linear-gradient-13"></linearGradient>
    <linearGradient id="linear-gradient-33" x1="164.87" y1="43.74" x2="291.39" y2="130.72" xlink:href="#linear-gradient-13"></linearGradient>
    <linearGradient id="linear-gradient-34" x1="189.64" y1="7.71" x2="316.16" y2="94.69" xlink:href="#linear-gradient-15"></linearGradient>
    <linearGradient id="linear-gradient-35" x1="167.49" y1="39.93" x2="294.01" y2="126.91" xlink:href="#linear-gradient-15"></linearGradient>
    <linearGradient id="linear-gradient-36" x1="165.08" y1="43.43" x2="291.6" y2="130.41" xlink:href="#linear-gradient-12"></linearGradient>
    <linearGradient id="linear-gradient-37" x1="162.09" y1="47.79" x2="288.61" y2="134.77" xlink:href="#linear-gradient-12"></linearGradient>
    <linearGradient id="linear-gradient-38" x1="177.1" y1="25.95" x2="303.62" y2="112.94" xlink:href="#linear-gradient-12"></linearGradient>
    <linearGradient id="linear-gradient-39" x1="167.16" y1="40.4" x2="293.68" y2="127.39" xlink:href="#linear-gradient-15"></linearGradient>
    <linearGradient id="linear-gradient-40" x1="156.33" y1="56.16" x2="282.85" y2="143.14" xlink:href="#linear-gradient-15"></linearGradient>
    <linearGradient id="linear-gradient-41" x1="188.98" y1="8.67" x2="315.5" y2="95.65" xlink:href="#linear-gradient-12"></linearGradient>
    <linearGradient id="linear-gradient-42" x1="174.55" y1="29.66" x2="301.07" y2="116.64" xlink:href="#linear-gradient-12"></linearGradient>
    <linearGradient id="linear-gradient-43" x1="190.12" y1="7.02" x2="316.64" y2="94" xlink:href="#linear-gradient-15"></linearGradient>
    <linearGradient id="linear-gradient-44" x1="179.83" y1="21.97" x2="306.35" y2="108.96" xlink:href="#linear-gradient-12"></linearGradient>
    <linearGradient id="linear-gradient-45" x1="191.87" y1="4.47" x2="318.39" y2="91.46" xlink:href="#linear-gradient-12"></linearGradient>
    <linearGradient id="linear-gradient-46" x1="183.42" y1="16.76" x2="309.94" y2="103.74" xlink:href="#linear-gradient-15"></linearGradient>
    <linearGradient id="linear-gradient-47" x1="177.41" y1="25.5" x2="303.93" y2="112.48" xlink:href="#linear-gradient-15"></linearGradient>
    <linearGradient id="linear-gradient-48" x1="167.65" y1="39.7" x2="294.17" y2="126.69" xlink:href="#linear-gradient-13"></linearGradient>
    <linearGradient id="linear-gradient-49" x1="163.93" y1="45.11" x2="290.45" y2="132.1" xlink:href="#linear-gradient-13"></linearGradient>
    <linearGradient id="linear-gradient-50" x1="187.84" y1="10.33" x2="314.36" y2="97.31" xlink:href="#linear-gradient-12"></linearGradient>
    <linearGradient id="linear-gradient-51" x1="182.94" y1="17.45" x2="309.46" y2="104.43" xlink:href="#linear-gradient-12"></linearGradient>
    <linearGradient id="linear-gradient-52" x1="168.37" y1="38.65" x2="294.89" y2="125.64" xlink:href="#linear-gradient-13"></linearGradient>
    <linearGradient id="linear-gradient-53" x1="167.01" y1="40.62" x2="293.53" y2="127.61" xlink:href="#linear-gradient-15"></linearGradient>
    <linearGradient id="linear-gradient-54" x1="170.3" y1="35.85" x2="296.82" y2="122.83" xlink:href="#linear-gradient-12"></linearGradient>
    <linearGradient id="linear-gradient-55" x1="186.35" y1="12.49" x2="312.87" y2="99.47" xlink:href="#linear-gradient-15"></linearGradient>
    <linearGradient id="linear-gradient-56" x1="188.73" y1="9.03" x2="315.25" y2="96.01" xlink:href="#linear-gradient-12"></linearGradient>
    <linearGradient id="linear-gradient-57" x1="182.68" y1="17.83" x2="309.21" y2="104.81" xlink:href="#linear-gradient-15"></linearGradient>
    <linearGradient id="linear-gradient-58" x1="182.68" y1="17.83" x2="309.21" y2="104.81" xlink:href="#linear-gradient-15"></linearGradient>
    <linearGradient id="linear-gradient-59" x1="188.78" y1="8.96" x2="315.3" y2="95.94" xlink:href="#linear-gradient-12"></linearGradient>
    <linearGradient id="linear-gradient-60" x1="188.78" y1="8.96" x2="315.3" y2="95.94" xlink:href="#linear-gradient-12"></linearGradient>
    <linearGradient id="linear-gradient-61" x1="168.35" y1="38.68" x2="294.87" y2="125.66" xlink:href="#linear-gradient-13"></linearGradient>
    <linearGradient id="linear-gradient-62" x1="168.35" y1="38.68" x2="294.87" y2="125.66" xlink:href="#linear-gradient-13"></linearGradient>
  </defs>
  <g class="cls-65">
    <g id="Layer_1" data-name="Layer 1">
      <g>
        <path class="cls-44" d="m49.3,187.77c0,.64-.12,1.24-.36,1.79s-.56,1.03-.96,1.43c-.4.4-.88.72-1.43.95-.55.23-1.14.34-1.75.34-.55,0-1.11-.1-1.67-.31-.56-.21-1.06-.54-1.5-1l-32.69-34.13v34.75H0v-45.52c0-.92.26-1.75.77-2.49.52-.74,1.18-1.3,1.98-1.67.85-.34,1.72-.43,2.62-.26s1.66.59,2.31,1.26l32.69,34.1v-34.75h8.94v45.52Z"></path>
        <path class="cls-44" d="m98.47,166.72c0,1.24-.22,2.58-.65,4.01-.44,1.43-1.14,2.76-2.12,3.99-.98,1.23-2.25,2.25-3.82,3.08-1.57.83-3.48,1.24-5.73,1.24h-16.14v-8.5h16.14c1.22,0,2.16-.37,2.82-1.12s1-1.67,1-2.77c0-1.17-.37-2.09-1.12-2.75-.74-.66-1.65-1-2.7-1h-16.14c-1.22,0-2.16.37-2.82,1.12-.67.74-1,1.67-1,2.77v12.49c0,1.19.37,2.12,1.12,2.79.74.67,1.67,1,2.77,1h16.07v8.53h-16.14c-1.24,0-2.57-.22-4.01-.65s-2.76-1.14-3.99-2.12-2.25-2.25-3.08-3.82c-.82-1.57-1.24-3.48-1.24-5.73v-12.56c0-1.24.22-2.57.65-4.01.43-1.43,1.14-2.76,2.11-3.99.98-1.23,2.25-2.25,3.82-3.08,1.57-.83,3.48-1.24,5.73-1.24h16.14c1.24,0,2.57.22,4.01.65,1.43.44,2.76,1.14,3.99,2.12s2.26,2.25,3.08,3.82c.83,1.57,1.24,3.48,1.24,5.73Z"></path>
        <path class="cls-11" d="m147.4,154.4l-17.15,17.55,19.32,19.65h-13.15l-12.71-12.97-12.71,12.97h-13.18l19.28-19.71-17.08-17.48h13.08l10.54,10.77,10.61-10.77h13.15Z"></path>
        <path class="cls-44" d="m185.86,163.34h-15.62v28.25h-9.05v-28.25h-11.63v-8.95h11.63v-12.15h9.05v12.15h15.62v8.95Z"></path>
        <path class="cls-44" d="m232.41,179.03c0,1.54-.19,2.92-.59,4.15-.39,1.23-.91,2.31-1.55,3.23-.64.93-1.39,1.72-2.24,2.37-.85.65-1.74,1.19-2.67,1.6-.93.41-1.87.72-2.82.91-.95.19-1.85.29-2.7.29h-16.14c-1.54,0-2.91-.19-4.13-.59-1.22-.39-2.29-.91-3.22-1.56-.93-.65-1.72-1.4-2.37-2.25-.65-.85-1.19-1.74-1.6-2.67-.41-.93-.72-1.87-.91-2.82s-.29-1.84-.29-2.67v-12.11c0-2.29.42-4.24,1.26-5.83.84-1.59,1.88-2.89,3.13-3.89,1.25-1,2.61-1.71,4.08-2.15s2.82-.65,4.06-.65h16.14v8.95h-16.07c-1.19,0-2.1.3-2.72.91-.62.61-.93,1.5-.93,2.67v12.04c0,1.22.3,2.13.91,2.75.61.62,1.5.93,2.67.93h16.14c1.21,0,2.12-.31,2.72-.93.6-.62.89-1.51.89-2.68v-40.36h8.95v40.36Z"></path>
        <path class="cls-44" d="m269.43,191.59h-16.14c-1.28,0-2.66-.22-4.11-.65s-2.81-1.15-4.08-2.15c-1.26-1-2.31-2.29-3.13-3.89-.83-1.59-1.24-3.55-1.24-5.87v-24.63h8.95v24.63c0,1.17.31,2.06.93,2.68.62.62,1.54.93,2.75.93h16.07v8.95Zm12.52,3.58c0,1.54-.19,2.92-.58,4.15-.39,1.23-.91,2.31-1.55,3.23-.64.93-1.39,1.72-2.23,2.37-.85.65-1.74,1.19-2.67,1.6-.93.41-1.86.72-2.8.91-.94.19-1.84.29-2.69.29h-16.14v-8.95h16.14c1.19,0,2.09-.31,2.69-.93.6-.62.89-1.51.89-2.68v-40.77h8.94v40.77Z"></path>
        <path class="cls-44" d="m331.71,191.59h-8.95v-20.64c0-1.17-.2-2.22-.6-3.15-.4-.93-.94-1.73-1.63-2.39-.69-.66-1.5-1.18-2.43-1.53-.93-.36-1.93-.53-3.01-.53h-15.66v28.25h-8.94v-32.75c0-.62.11-1.2.34-1.74.23-.54.55-1.01.96-1.41.41-.4.89-.72,1.44-.95.55-.23,1.14-.34,1.75-.34h20.16c1.12,0,2.31.13,3.56.38s2.49.66,3.72,1.22,2.4,1.27,3.51,2.13c1.11.86,2.1,1.9,2.96,3.13.86,1.23,1.54,2.64,2.05,4.25.5,1.61.76,3.42.76,5.44v20.64Z"></path>
        <path class="cls-44" d="m377.95,179.27c0,1.24-.22,2.58-.65,4.01-.43,1.43-1.14,2.76-2.11,3.99-.98,1.23-2.25,2.25-3.82,3.08s-3.48,1.24-5.73,1.24h-16.14c-1.24,0-2.57-.22-4.01-.65-1.44-.44-2.76-1.14-3.99-2.12s-2.25-2.25-3.08-3.82c-.83-1.57-1.24-3.48-1.24-5.73,0-1.24.22-2.58.65-4.02.43-1.45,1.14-2.78,2.11-4.01.98-1.23,2.25-2.25,3.82-3.08,1.57-.83,3.48-1.24,5.73-1.24h16.14v8.53h-16.14c-1.22,0-2.16.37-2.82,1.12s-1,1.67-1,2.77c0,1.17.38,2.08,1.15,2.74.77.65,1.68.98,2.74.98h16.07c1.22,0,2.16-.37,2.82-1.1s1-1.65,1-2.75v-12.49c0-1.17-.36-2.1-1.08-2.79-.72-.69-1.63-1.03-2.74-1.03h-19.65v-8.5h19.65c1.24,0,2.57.22,4.01.65s2.76,1.14,3.99,2.12,2.25,2.25,3.08,3.82c.83,1.57,1.24,3.48,1.24,5.73v12.56Z"></path>
        <path class="cls-44" d="m418.79,191.59h-8.95v-24.67c0-1.17-.31-2.06-.93-2.67-.62-.61-1.54-.91-2.75-.91h-11.63v28.25h-8.94v-32.75c0-.62.11-1.2.34-1.74.23-.54.55-1.01.96-1.41.41-.4.89-.72,1.44-.95.55-.23,1.14-.34,1.75-.34h16.14c1.24,0,2.57.22,3.99.65s2.78,1.14,4.06,2.1v-2.75h12.11c.85,0,1.74.1,2.68.29.94.19,1.87.5,2.8.91.93.41,1.82.95,2.67,1.6.85.65,1.59,1.45,2.24,2.37.64.93,1.16,2,1.55,3.22s.59,2.59.59,4.13v24.67h-8.95v-24.67c0-1.17-.29-2.06-.88-2.67-.58-.61-1.48-.91-2.7-.91h-8.05c.3,1.1.45,2.29.45,3.58v24.67Z"></path>
        <path class="cls-44" d="m456.22,146.76h-8.94v-8.09h8.94v8.09Zm0,44.83h-8.94v-37.19h8.94v37.19Z"></path>
        <path class="cls-44" d="m507.28,154.4l-16.07,17.55,18.1,19.65h-12.32l-11.9-12.97-11.9,12.97h-12.35l18.06-19.71-16-17.48h12.25l9.87,10.77,9.94-10.77h12.32Z"></path>
        <g>
          <path class="cls-6" d="m302.18,55.85v.09s-.03-.03-.06-.03l.06-.06Z"></path>
          <path class="cls-37" d="m302.18,55.85l-.06.06v-.06h.06Z"></path>
          <path class="cls-6" d="m302.18,55.85v.09s-.03-.03-.06-.03l.06-.06Z"></path>
          <path class="cls-41" d="m302.18,55.85v.09s-.03-.03-.06-.03v-.06h.06Z"></path>
          <g>
            <g>
              <path class="cls-63" d="m237.3,27.49v15.26h-19.54v19.54h-15.26v-25.32c0-5.24,4.25-9.48,9.48-9.48h25.32Z"></path>
              <path class="cls-15" d="m217.76,42.75h0c0-5.7,2.62-11.08,7.1-14.6l.84-.66h11.61v15.26h-19.54Z"></path>
            </g>
            <g>
              <path class="cls-10" d="m217.76,106.96h19.54v15.26h-25.32c-5.24,0-9.48-4.25-9.48-9.48v-25.32h15.26v19.54Z"></path>
              <path class="cls-62" d="m217.76,106.96h0c-5.7,0-11.08-2.62-14.6-7.1l-.66-.84v-11.61h15.26v19.54Z"></path>
            </g>
            <g>
              <path class="cls-48" d="m281.97,87.42h15.26v25.32c0,5.24-4.25,9.48-9.48,9.48h-25.32v-15.26h19.54v-19.54Z"></path>
              <path class="cls-17" d="m281.96,106.96h0c0,5.7-2.62,11.08-7.1,14.6l-.84.66h-11.61v-15.26h19.54Z"></path>
            </g>
            <g>
              <path class="cls-61" d="m297.23,36.98v25.32h-15.26v-19.54h-19.54v-15.26h25.32c5.24,0,9.48,4.25,9.48,9.48Z"></path>
              <path class="cls-12" d="m281.97,42.75h0c5.7,0,11.08,2.62,14.6,7.1l.66.84v11.61h-15.26v-19.54Z"></path>
            </g>
          </g>
          <path class="cls-2" d="m246.59,50.48v5.69h.11v-5.61s-.07-.06-.11-.09Z"></path>
          <path class="cls-22" d="m253.28,95.31v-1.74h-.12v1.66s.07.06.12.09Z"></path>
          <path class="cls-36" d="m230.52,58.12c.2.2.45.29.71.31v-2.16c-.26.01-.52.11-.71.31-.43.43-.42,1.12,0,1.54Z"></path>
          <path class="cls-14" d="m268.67,77.69h-.03v.51h.44c-.16-.15-.3-.32-.41-.51Z"></path>
          <path class="cls-26" d="m233.32,57.92l3.92,3.92h3.11s1.11,1.11,1.11,1.11v-2.41l-2.84-2.84c-.72.2-1.51.03-2.07-.53-.29-.29-.47-.64-.56-1.01h-2.96c.35.52.46,1.17.29,1.76Z"></path>
          <path class="cls-3" d="m237.28,56.44c.43.43,1.12.42,1.54,0,.08-.08.13-.18.18-.28h-1.91c.05.1.1.19.18.28Z"></path>
          <path class="cls-53" d="m253.71,53.4c.6,0,1.09-.49,1.09-1.09s-.49-1.09-1.09-1.09c-.15,0-.29.03-.42.09v2.01c.13.06.27.09.42.09Z"></path>
          <path class="cls-4" d="m243.53,59.69v2.89c1.59-.99,3.41-1.62,5.37-1.79v-1.63l-2.2-2.2v-.8h-.11v-5.69c-.58-.38-.98-1.02-.98-1.76s.39-1.4.98-1.78V8.5c1.43-.76,2.43-2.25,2.43-3.98,0-2.49-2.03-4.52-4.52-4.52s-4.52,2.03-4.52,4.52c0,1.73.99,3.22,2.43,3.98v47.67h-2.31s0,.05-.01.08l3.44,3.44Zm-1.22-55.17c0-1.21.98-2.19,2.19-2.19s2.19.98,2.19,2.19-.98,2.19-2.19,2.19-2.19-.98-2.19-2.19Z"></path>
          <path class="cls-35" d="m266.58,63.04l-3.44,3.44h-2.89c.99,1.59,1.62,3.41,1.79,5.37h1.63l2.2-2.2h6.4c.36-.65,1.05-1.09,1.84-1.09,1.17,0,2.12.95,2.12,2.12,0,.29-.06.57-.16.82h40.23c.76,1.43,2.25,2.43,3.98,2.43,2.49,0,4.52-2.03,4.52-4.52s-2.03-4.52-4.52-4.52c-1.73,0-3.22.99-3.98,2.43h-47.65v-4.81c-.56.55-1.35.72-2.06.52Zm53.7,4.19c1.21,0,2.19.98,2.19,2.19s-.98,2.19-2.19,2.19-2.19-.98-2.19-2.19.98-2.19,2.19-2.19Z"></path>
          <path class="cls-9" d="m255.83,52.31c0,.79-.44,1.48-1.09,1.84v4.87l-2.04,2.04c1.89.44,3.62,1.33,5.06,2.54l1.16-1.16v-3.11s3.18-3.18,3.18-3.18h-4.63V8.5c1.43-.76,2.43-2.25,2.43-3.98,0-2.49-2.03-4.52-4.52-4.52s-4.52,2.03-4.52,4.52c0,1.73.99,3.22,2.43,3.98v41.73c.14-.03.28-.04.42-.04,1.17,0,2.12.95,2.12,2.12Zm-2.65-47.79c0-1.21.98-2.19,2.19-2.19s2.19.98,2.19,2.19-.98,2.19-2.19,2.19-2.19-.98-2.19-2.19Z"></path>
          <polygon class="cls-27" points="250.97 59.87 252.67 58.17 252.67 56.17 248.83 56.17 250.97 58.3 250.97 59.87"></polygon>
          <path class="cls-23" d="m275.2,70.69c0-.6-.49-1.09-1.09-1.09s-1.09.49-1.09,1.09c0,.33.16.62.39.82h1.4c.23-.2.39-.49.39-.82Z"></path>
          <polygon class="cls-50" points="264.52 73.92 262.96 73.92 264.66 75.63 268.64 75.63 268.64 71.73 266.72 71.73 264.52 73.92"></polygon>
          <path class="cls-24" d="m264.9,56.28l-3.92,3.92v3.11s-1.11,1.11-1.11,1.11h2.41s2.84-2.84,2.84-2.84c-.2-.72-.03-1.51.53-2.07.82-.82,2.16-.83,2.99-.01v-3.32h-2.32c-.45.2-.95.24-1.42.11Z"></path>
          <path class="cls-51" d="m262.59,90.88c.43-.43.43-1.12,0-1.54s-1.12-.42-1.54,0c-.43.43-.43,1.12,0,1.54.43.43,1.12.43,1.54,0Z"></path>
          <path class="cls-42" d="m249.94,66.12c-3.73,0-6.77,3.04-6.77,6.77s3.04,6.77,6.77,6.77,6.77-3.04,6.77-6.77-3.04-6.77-6.77-6.77Z"></path>
          <path class="cls-59" d="m248.9,87.48v-1.57l-1.7,1.7v4.01c.65.36,1.09,1.05,1.09,1.84,0,.03,0,.06,0,.09h2.82v-3.89l-2.2-2.2Z"></path>
          <path class="cls-57" d="m267.08,89.93c-.56-.56-.73-1.36-.53-2.07l-3.92-3.92h-3.11s-1.11-1.11-1.11-1.11v2.41s2.84,2.84,2.84,2.84c.72-.2,1.51-.03,2.07.53.83.83.83,2.18,0,3-.83.83-2.18.83-3,0-.56-.56-.73-1.36-.53-2.07l-3.44-3.44v-2.89c-1.59.99-3.41,1.62-5.37,1.79v1.63l2.2,2.2v4.74h.12v1.74c.58.38.98,1.02.98,1.76s-.39,1.4-.98,1.78v42.37c-1.43.76-2.43,2.25-2.43,3.98,0,2.49,2.03,4.52,4.52,4.52s4.52-2.03,4.52-4.52c0-1.73-.99-3.22-2.43-3.98v-47.66h11.18v-3.02c-.56.02-1.13-.19-1.56-.62Zm-9.52,55.27c0,1.21-.98,2.19-2.19,2.19s-2.19-.98-2.19-2.19.98-2.19,2.19-2.19,2.19.98,2.19,2.19Z"></path>
          <path class="cls-55" d="m229.36,68.03c-.6,0-1.09.49-1.09,1.09s.49,1.09,1.09,1.09,1.09-.49,1.09-1.09-.49-1.09-1.09-1.09Z"></path>
          <path class="cls-16" d="m267.81,87.66c-.43.43-.43,1.12,0,1.54.23.23.53.32.83.31v-2.16c-.3-.02-.6.08-.83.31Z"></path>
          <path class="cls-32" d="m247.24,93.56s.02-.06.02-.09c0-.6-.49-1.09-1.09-1.09s-1.09.49-1.09,1.09.49,1.09,1.09,1.09c.15,0,.29-.03.42-.09v-.91h.65Z"></path>
          <path class="cls-5" d="m233.63,90.77c-.43.43-.43,1.12,0,1.54.43.43,1.12.43,1.54,0,.43-.43.43-1.12,0-1.54-.43-.43-1.12-.43-1.54,0Z"></path>
          <path class="cls-19" d="m267.93,61.77c.43-.43.43-1.12,0-1.54-.43-.43-1.12-.43-1.54,0-.43.43-.42,1.12,0,1.54.43.43,1.12.43,1.54,0Z"></path>
          <path class="cls-30" d="m231.95,84.01c-.43.43-.43,1.12,0,1.54s1.12.43,1.54,0,.42-1.12,0-1.54c-.43-.43-1.12-.43-1.54,0Z"></path>
          <path class="cls-45" d="m235.35,71.86h1.57l-1.7-1.7h-4.01c-.36.65-1.05,1.09-1.84,1.09-1.17,0-2.12-.95-2.12-2.12,0-.75.4-1.41.99-1.79h-44.65c-.76-1.43-2.25-2.43-3.98-2.43-2.49,0-4.52,2.03-4.52,4.52s2.03,4.52,4.52,4.52c1.73,0,3.22-.99,3.98-2.43h47.66v2.54h1.92l2.2-2.2Zm-55.75-.24c-1.21,0-2.19-.98-2.19-2.19s.98-2.19,2.19-2.19,2.19.98,2.19,2.19-.98,2.19-2.19,2.19Z"></path>
          <path class="cls-64" d="m233.29,82.74l3.44-3.44h2.89c-.99-1.59-1.62-3.41-1.79-5.37h-1.63l-2.2,2.2h-2.78v2.08h-47.66c-.76-1.43-2.25-2.43-3.98-2.43-2.49,0-4.52,2.03-4.52,4.52s2.03,4.52,4.52,4.52c1.73,0,3.22-.99,3.98-2.43h47.66v.88c.56-.55,1.35-.72,2.06-.52Zm-53.69-.25c-1.21,0-2.19-.98-2.19-2.19s.98-2.19,2.19-2.19,2.19.98,2.19,2.19-.98,2.19-2.19,2.19Z"></path>
          <path class="cls-1" d="m231.2,68.09h4.87l2.04,2.04c.44-1.89,1.33-3.62,2.54-5.06l-1.16-1.16h-3.11s-4.53-4.53-4.53-4.53c-.21.06-.42.08-.63.07v7.87h-.75c.3.19.55.45.72.76Z"></path>
          <path class="cls-40" d="m232.9,90.04c.56-.56,1.36-.73,2.07-.53l3.92-3.92v-3.11s1.11-1.11,1.11-1.11h-2.41s-2.84,2.84-2.84,2.84c.2.72.03,1.51-.53,2.07-.82.82-2.16.83-2.99.01v7.27h2.56c-.33-.1-.64-.27-.9-.52-.83-.83-.83-2.18,0-3Z"></path>
          <path class="cls-21" d="m244.04,93.47c0-.79.44-1.48,1.09-1.84v-4.87l2.04-2.04c-1.89-.44-3.62-1.33-5.06-2.54l-1.16,1.16v3.11s-4.53,4.53-4.53,4.53c.2.72.03,1.51-.53,2.07-.26.26-.57.43-.9.52h7.41v47.66c-1.43.76-2.43,2.25-2.43,3.98,0,2.49,2.03,4.52,4.52,4.52s4.52-2.03,4.52-4.52c0-1.73-.99-3.22-2.43-3.98v-45.67c-.14.03-.28.04-.42.04-1.17,0-2.12-.95-2.12-2.12Zm2.65,51.73c0,1.21-.98,2.19-2.19,2.19s-2.19-.98-2.19-2.19.98-2.19,2.19-2.19,2.19.98,2.19,2.19Z"></path>
          <path class="cls-20" d="m320.28,75.78c-1.73,0-3.22.99-3.98,2.43h-44.33c-.38.36-.89.58-1.45.58s-1.05-.23-1.43-.58h-.44v-.51h-4.84l-2.04-2.04c-.44,1.89-1.33,3.62-2.54,5.06l1.16,1.16h3.11s4.53,4.53,4.53,4.53c.21-.06.42-.08.63-.07v-3.94h47.65c.76,1.44,2.25,2.43,3.98,2.43,2.49,0,4.52-2.03,4.52-4.52s-2.03-4.52-4.52-4.52Zm0,6.71c-1.21,0-2.19-.98-2.19-2.19s.98-2.19,2.19-2.19,2.19.98,2.19,2.19-.98,2.19-2.19,2.19Z"></path>
          <path class="cls-13" d="m229.36,67c-.42,0-.81.13-1.13.33h2.26c-.33-.21-.71-.33-1.12-.33Z"></path>
          <path class="cls-25" d="m268.66,62.51c.83-.83.83-2.18,0-3,0,0,0,0-.01-.01v3.03s0,0,.01-.01Z"></path>
          <path class="cls-56" d="m230.52,58.12c-.43-.43-.43-1.12,0-1.54.2-.2.45-.29.71-.31v-.11h1.8c-.07-.11-.14-.22-.24-.32-.83-.83-2.18-.83-3,0s-.83,2.18,0,3c.4.4.92.59,1.44.6v-1.03c-.26-.01-.52-.11-.71-.31Z"></path>
          <path class="cls-39" d="m266.98,55.74c.83-.83.83-2.18,0-3-.83-.83-2.18-.83-3,0-.56.56-.73,1.36-.53,2.07l-1.35,1.35h4.24c.23-.1.46-.23.65-.42Zm-2.27-.73c-.43-.43-.43-1.12,0-1.54.43-.43,1.12-.43,1.54,0,.43.43.42,1.12,0,1.54-.43.43-1.12.43-1.54,0Z"></path>
          <path class="cls-58" d="m268.67,77.69c.11.19.25.36.41.51h2.88c.41-.39.67-.93.67-1.54,0-1.17-.95-2.12-2.12-2.12-.79,0-1.48.44-1.84,1.09h-.03v2.07h.03Zm1.84-2.12c.6,0,1.09.49,1.09,1.09s-.49,1.09-1.09,1.09-1.09-.49-1.09-1.09.49-1.09,1.09-1.09Z"></path>
          <path class="cls-49" d="m269.36,87.66c.43.43.43,1.12,0,1.54-.2.2-.45.29-.71.31v1.04c.52-.01,1.04-.22,1.44-.62.83-.83.83-2.18,0-3-.4-.4-.92-.59-1.44-.6v1.03c.26.01.51.11.71.31Z"></path>
          <path class="cls-46" d="m246.59,94.47v1.08c.94-.19,1.65-1,1.69-1.99h-1.04c-.04.41-.29.76-.65.91Z"></path>
          <path class="cls-47" d="m235,93.56h-1.21c.4.12.82.12,1.21,0Z"></path>
          <path class="cls-31" d="m246.7,50.56v5.61h2.13l-.06-.06v-5.55c.65-.36,1.09-1.05,1.09-1.84,0-1.17-.95-2.12-2.12-2.12-.42,0-.82.13-1.15.34v3.54s.07.06.11.09Zm1.03-2.93c.6,0,1.09.49,1.09,1.09s-.49,1.09-1.09,1.09-1.09-.49-1.09-1.09.49-1.09,1.09-1.09Z"></path>
          <path class="cls-54" d="m237.28,54.9c.43-.43,1.12-.42,1.54,0,.34.34.4.86.18,1.27h1.09c.17-.7,0-1.46-.54-2-.83-.83-2.18-.83-3,0-.54.54-.72,1.3-.56,2h1.1c-.21-.41-.16-.92.18-1.27Z"></path>
          <path class="cls-38" d="m253.17,95.22v-1.66h-2.07v1.66c-.65.36-1.09,1.05-1.09,1.84,0,1.17.95,2.12,2.12,2.12.42,0,.82-.13,1.15-.34v-3.54s-.07-.06-.12-.09Zm-1.03,2.93c-.6,0-1.09-.49-1.09-1.09s.49-1.09,1.09-1.09,1.09.49,1.09,1.09-.49,1.09-1.09,1.09Z"></path>
          <path class="cls-43" d="m231.22,83.27c-.83.83-.83,2.18,0,3,0,0,.01,0,.02.01v-3.03s-.01,0-.02.01Z"></path>
          <path class="cls-28" d="m227.61,74.05c-.36-.65-1.05-1.09-1.84-1.09-1.17,0-2.12.95-2.12,2.12s.95,2.12,2.12,2.12c.79,0,1.48-.44,1.84-1.09h3.62v-2.07h-3.62Zm-1.84,2.12c-.6,0-1.09-.49-1.09-1.09s.49-1.09,1.09-1.09,1.09.49,1.09,1.09-.49,1.09-1.09,1.09Z"></path>
          <path class="cls-29" d="m274.11,71.78c-.27,0-.51-.11-.7-.27h-4.77v.22h3.62c.36.65,1.05,1.09,1.84,1.09.88,0,1.64-.54,1.96-1.31h-1.26c-.19.16-.43.27-.7.27Z"></path>
          <path class="cls-60" d="m253.28,53.31c-.39-.17-.67-.55-.67-1s.28-.84.67-1v-1.08c-.97.2-1.7,1.06-1.7,2.08,0,.79.44,1.48,1.09,1.84v2.01h.61v-2.85Z"></path>
          <path class="cls-8" d="m270.52,78.78c.56,0,1.07-.22,1.45-.58h-2.88c.38.35.87.58,1.43.58Z"></path>
          <path class="cls-18" d="m270.52,78.78c.56,0,1.07-.22,1.45-.58h-2.88c.38.35.87.58,1.43.58Z"></path>
          <path class="cls-34" d="m245.61,48.72c0,.74.4,1.38.98,1.76v-3.54c-.59.38-.98,1.03-.98,1.78Z"></path>
          <path class="cls-33" d="m245.61,48.72c0,.74.4,1.38.98,1.76v-3.54c-.59.38-.98,1.03-.98,1.78Z"></path>
          <path class="cls-52" d="m254.26,97.06c0-.74-.4-1.38-.98-1.76v3.54c.59-.38.98-1.03.98-1.78Z"></path>
          <path class="cls-7" d="m254.26,97.06c0-.74-.4-1.38-.98-1.76v3.54c.59-.38.98-1.03.98-1.78Z"></path>
        </g>
      </g>
    </g>
  </g>
</svg>
